<svg version="1.1" id="Layer_1" xmlns="http://www.w3.org/2000/svg" xmlns:xlink="http://www.w3.org/1999/xlink" x="0px" y="0px"
	 width="100%" viewBox="0 0 512 512" enable-background="new 0 0 512 512" xml:space="preserve">
<path fill="#000000" opacity="1.000000" stroke="none" 
	d="
M243.000000,513.000000 
	C162.019638,513.000000 81.539276,513.000000 1.029458,513.000000 
	C1.029458,342.394623 1.029458,171.789215 1.029458,1.091913 
	C171.563721,1.091913 342.127502,1.091913 512.845642,1.091913 
	C512.845642,171.666565 512.845642,342.333252 512.845642,513.000000 
	C423.122528,513.000000 333.311249,513.000000 243.000000,513.000000 
M131.252228,393.259766 
	C131.078751,393.900269 130.948151,394.556122 130.725388,395.179016 
	C127.474617,404.268311 129.985336,408.431305 139.665268,408.924316 
	C145.918625,409.242767 152.428070,409.667847 158.452698,408.351501 
	C174.618454,404.819275 190.729889,400.866882 206.599258,396.187347 
	C234.937271,387.831177 262.397949,376.980743 288.970490,364.105011 
	C329.996521,344.225830 372.596558,328.857269 416.772064,317.735138 
	C424.653961,315.750732 429.590881,308.896637 429.436035,300.452820 
	C428.691101,297.291229 427.946167,294.129639 427.233093,290.185638 
	C426.504700,288.166962 426.081848,285.964722 424.997345,284.160034 
	C418.860535,273.947815 413.200287,263.369202 406.215881,253.759857 
	C372.495911,207.366989 328.862610,172.982147 276.912109,149.091980 
	C250.622467,137.002304 223.268250,128.126633 194.733948,122.761086 
	C178.724411,119.750679 162.858093,116.622742 146.501938,119.037048 
	C140.770340,119.883080 134.196381,120.352264 131.506256,126.171913 
	C128.658829,132.331879 133.129868,137.246231 137.144287,141.479263 
	C140.787216,145.320572 145.020081,148.595367 148.779022,152.334900 
	C180.252884,183.646225 189.811859,222.236023 184.667542,264.973602 
	C181.316055,292.816925 170.928070,318.607635 157.686890,343.262634 
	C150.985474,355.740631 144.667786,368.424683 137.545563,381.333649 
	C135.659500,385.177856 133.773438,389.022095 131.252228,393.259766 
z"/>
<path fill="#FEFEFE" opacity="1.000000" stroke="none" 
	d="
M138.176605,381.015625 
	C144.667786,368.424683 150.985474,355.740631 157.686890,343.262634 
	C170.928070,318.607635 181.316055,292.816925 184.667542,264.973602 
	C189.811859,222.236023 180.252884,183.646225 148.779022,152.334900 
	C145.020081,148.595367 140.787216,145.320572 137.144287,141.479263 
	C133.129868,137.246231 128.658829,132.331879 131.506256,126.171913 
	C134.196381,120.352264 140.770340,119.883080 146.501938,119.037048 
	C162.858093,116.622742 178.724411,119.750679 194.733948,122.761086 
	C223.268250,128.126633 250.622467,137.002304 276.912109,149.091980 
	C328.862610,172.982147 372.495911,207.366989 406.215881,253.759857 
	C413.200287,263.369202 418.860535,273.947815 424.997345,284.160034 
	C426.081848,285.964722 426.504700,288.166962 426.779663,290.596069 
	C411.127319,293.345764 395.828583,295.177094 380.752106,298.139587 
	C356.212006,302.961639 332.443115,310.525208 311.014526,323.672760 
	C296.611725,332.509644 283.051758,342.724884 269.164948,352.395599 
	C264.327698,355.764191 259.641113,359.349152 254.547028,362.949615 
	C249.575485,365.199066 244.942657,367.334198 239.924438,369.347778 
	C211.875046,377.985321 183.646606,383.006195 154.519028,381.960449 
	C149.067276,381.764709 143.623871,381.336517 138.176605,381.015625 
z"/>
<path fill="#919191" opacity="1.000000" stroke="none" 
	d="
M240.309830,369.469330 
	C244.942657,367.334198 249.575485,365.199066 254.930969,363.000275 
	C270.768494,356.061157 286.217590,349.828278 300.928436,342.176117 
	C331.294922,326.380341 362.593689,313.295563 396.250366,306.478546 
	C407.103302,304.280365 418.105896,302.821106 429.040039,301.023804 
	C429.590881,308.896637 424.653961,315.750732 416.772064,317.735138 
	C372.596558,328.857269 329.996521,344.225830 288.970490,364.105011 
	C262.397949,376.980743 234.937271,387.831177 206.599258,396.187347 
	C190.729889,400.866882 174.618454,404.819275 158.452698,408.351501 
	C152.428070,409.667847 145.918625,409.242767 139.665268,408.924316 
	C129.985336,408.431305 127.474617,404.268311 130.725388,395.179016 
	C130.948151,394.556122 131.078751,393.900269 131.749710,393.430817 
	C133.942352,394.041168 135.643997,394.879639 137.331573,394.852203 
	C145.632812,394.717468 153.928436,394.265930 162.229523,394.087128 
	C180.694260,393.689392 198.535919,390.183655 215.382980,382.629639 
	C223.938766,378.793365 232.016174,373.890198 240.309830,369.469330 
z"/>
<path fill="#CDCDCD" opacity="1.000000" stroke="none" 
	d="
M429.238037,300.738312 
	C418.105896,302.821106 407.103302,304.280365 396.250366,306.478546 
	C362.593689,313.295563 331.294922,326.380341 300.928436,342.176117 
	C286.217590,349.828278 270.768494,356.061157 255.269669,362.885956 
	C259.641113,359.349152 264.327698,355.764191 269.164948,352.395599 
	C283.051758,342.724884 296.611725,332.509644 311.014526,323.672760 
	C332.443115,310.525208 356.212006,302.961639 380.752106,298.139587 
	C395.828583,295.177094 411.127319,293.345764 426.763733,290.987305 
	C427.946167,294.129639 428.691101,297.291229 429.238037,300.738312 
z"/>
<path fill="#CCCCCC" opacity="1.000000" stroke="none" 
	d="
M239.924454,369.347809 
	C232.016174,373.890198 223.938766,378.793365 215.382980,382.629639 
	C198.535919,390.183655 180.694260,393.689392 162.229523,394.087128 
	C153.928436,394.265930 145.632812,394.717468 137.331573,394.852203 
	C135.643997,394.879639 133.942352,394.041168 132.067291,393.234070 
	C133.773438,389.022095 135.659500,385.177856 137.861084,381.174622 
	C143.623871,381.336517 149.067276,381.764709 154.519028,381.960449 
	C183.646606,383.006195 211.875046,377.985321 239.924454,369.347809 
z"/>
</svg>